<?xml version="1.0" encoding="UTF-8"?>
<svg id="uuid-0fe773b3-c9cb-449d-b32a-a658ddbf1cc7" data-name="Layer 1" xmlns="http://www.w3.org/2000/svg" viewBox="0 0 1000 1000">
  <defs>
    <style>
      .uuid-ba7b3652-0107-404a-bafc-8d4eccf57ef9 {
        fill: #fff;
      }

      .uuid-65a61c28-8f81-4182-919e-6fc5dd0a9cfd {
        fill: #1d2028;
      }

      .uuid-6fc150d9-84ec-4ac7-8089-d9f0bf89019f {
        fill: #c1272d;
      }
    </style>
  </defs>
  <rect class="uuid-ba7b3652-0107-404a-bafc-8d4eccf57ef9" width="1000" height="1000"/>
  <g>
    <path class="uuid-6fc150d9-84ec-4ac7-8089-d9f0bf89019f" d="M147.43,200.52c0-4.26.23-9.97-2.68-12.49-8.01-6.94-17.64-12.55-28.44-19.92v456.64c0,2.41,2.31,4.37,5.16,4.37h20.92c2.85,0,5.16-1.96,5.16-4.37,0-141.41-.02-282.82-.11-424.22Z"/>
    <path class="uuid-65a61c28-8f81-4182-919e-6fc5dd0a9cfd" d="M950.95,617.36c-22.02-114.56-120.18-196.13-237.7-197.3-34.18-.34-68.38.61-102.54-.33-47.56-1.3-80.87-36.18-80.33-82.66.54-46.86,34.3-79.34,82.82-79.43,55.22-.1,110.43-.17,165.65.16,8.03.05,12.52-2.53,16.51-9.55,27.06-47.58,54.59-94.9,81.9-142.33,1.64-2.85,2.75-6,4.61-10.13-3.87-.19-6.38-.42-8.89-.42-89.4,0-178.79-.11-268.19.16-11.77.04-23.69,1.21-35.29,3.26-173.19,30.69-258.22,231.51-158.58,376.16,47.5,68.95,114.2,102.42,193.28,106.18v.03h.78c7.86.36,15.84.43,23.94.2l33.28.27c15.76.01,31.51.04,47.27.07,48.53.09,82.28,32.57,82.82,79.43.54,46.48-32.77,81.36-80.33,82.66-12.91.35-25.83.44-38.75.42-.23,0-.46.02-.69.03-20.86.23-32.73.25-52.25.21-3.64,0-6.6,2.94-6.6,6.58v18.65c0,3.66,2.96,6.62,6.61,6.64,19.43.07,38.86.16,58.29-.22,11.52,0,23.05-.08,34.57-.31,55.91-1.14,102.51-41.74,109.69-94.63,7.96-58.66-21.9-109.3-75.27-125.9-11.5-3.57-24.07-4.96-36.17-5.11-16.4-.2-32.8-.31-49.2-.38h-18.77c-11.66,0-23.82-.42-34.71-.6-130.51-2.06-227.36-118.73-205.18-247.13,17.17-99.38,103.42-173.65,204.31-174.78,70.11-.78,140.23-.21,210.34-.21,2.43,0,4.86.4,8.76.74-2.43,4.79-4,8.23-5.88,11.5-14.63,25.44-29.63,50.66-43.78,76.36-4.17,7.57-8.85,10.29-17.48,10.23-49.52-.37-99.04-.42-148.55.19-12.1.15-24.67,1.53-36.17,5.11-53.37,16.6-83.23,67.24-75.27,125.9,7.18,52.89,53.78,93.49,109.69,94.63,34.17.7,68.36.04,102.54.18,76.22.31,135.58,33.66,176.82,96.29,44.05,66.91,47.64,139.25,10.54,209.7-39.19,74.42-103.32,114.35-188.64,114.6-206.84.59-413.68.2-620.52.17-4.27,0-8.54-.36-14.24-.62,0-6.91,0-12.93,0-18.94,0-226.56,0-453.12-.12-679.68,0-5.03.23-11.77-2.68-14.75-8.01-8.2-17.64-14.82-28.44-23.51v769.36c5.41,0,9.28,0,13.16,0,219.99-.01,439.98.59,659.95-.79,28.21-.18,57.86-6.69,84.27-16.92,108.03-41.85,170.4-156.93,148.78-269.47Z"/>
    <g>
      <path class="uuid-6fc150d9-84ec-4ac7-8089-d9f0bf89019f" d="M147.43,160.68c0-4.26.23-9.97-2.68-12.49-8.01-6.94-17.64-12.55-28.44-19.92v362.26h31.22c-.01-109.95-.03-219.9-.1-329.85Z"/>
      <path class="uuid-65a61c28-8f81-4182-919e-6fc5dd0a9cfd" d="M75.91,133.61c0-5.03.23-11.77-2.68-14.75-8.01-8.2-17.64-14.82-28.44-23.51v395.19h31.23c-.01-118.98-.04-237.95-.11-356.93Z"/>
    </g>
  </g>
</svg>
